<?xml version="1.0" encoding="utf-8"?>
<!-- Generator: Adobe Illustrator 27.9.0, SVG Export Plug-In . SVG Version: 6.00 Build 0)  -->
<svg version="1.1" id="Layer_2_00000022558413489064202940000011019423895274661044_"
	 xmlns="http://www.w3.org/2000/svg" xmlns:xlink="http://www.w3.org/1999/xlink" x="0px" y="0px" viewBox="0 0 82 82"
	 style="enable-background:new 0 0 82 82;" xml:space="preserve">
<style type="text/css">
	.st0{fill:#3C3C39;}
	.st1{clip-path:url(#SVGID_00000098918221518430590070000002373981546873162128_);}
	.st2{fill:#FFFFFF;}
</style>
<g>
	<path id="Path_130962" class="st0" d="M-0.6-0.2h83.3V82H-0.6V-0.2z"/>
	<g id="Layer_3">
		<g>
			<defs>
				<rect id="SVGID_1_" x="-0.7" y="0" width="83.3" height="82.2"/>
			</defs>
			<clipPath id="SVGID_00000034770166286132701680000005976167285226900925_">
				<use xlink:href="#SVGID_1_"  style="overflow:visible;"/>
			</clipPath>
			<g style="clip-path:url(#SVGID_00000034770166286132701680000005976167285226900925_);">
				<g id="Group_244">
					<path id="Path_130707" class="st2" d="M19.1,64.8c0.1,0.6-0.2,1.2-0.5,1.6c-0.4,0.5-1,0.8-1.7,1c-0.8,0.2-1.7,0.2-2.4-0.1
						c-1.2-0.4-1.7-1.7-1.3-2.9c0.1-0.2,0.2-0.4,0.3-0.6c0.5-0.7,1.2-1.1,2-1.3c0.3-0.1,0.7-0.1,1-0.1c0.3,0,0.6,0.1,0.9,0.2
						c0.2-0.2,0.4-0.4,0.6-0.7l0.2,0l0.4,2l-0.2,0c-0.3-0.3-0.7-0.7-1-1c-0.3-0.2-0.6-0.3-0.9-0.3c-0.3-0.1-0.6,0-0.9,0
						c-0.5,0.1-1,0.4-1.2,0.9c-0.2,0.6-0.2,1.2,0,1.8c0.1,0.6,0.4,1.1,0.9,1.5c0.4,0.3,1,0.4,1.5,0.2c0.5-0.1,1-0.4,1.4-0.8
						c0.3-0.4,0.5-0.9,0.5-1.4L19.1,64.8"/>
					<path id="Path_130708" class="st2" d="M25,63l-0.2-1.5l-0.5-0.4l-0.4,0.1l0-0.2c1.1-0.2,2.3-0.3,3.4-0.5c0,0.1,0,0.1,0,0.2
						l-0.7,0.1c-0.1,0.2-0.2,0.4-0.4,0.5l0.5,3.4c0.2,0.1,0.3,0.3,0.5,0.4l0.7-0.1l0,0.2c-1.1,0.1-2.2,0.3-3.3,0.5l0-0.2l0.4-0.1
						c0.1-0.2,0.2-0.4,0.3-0.6l-0.2-1.6c-0.8,0.1-1.6,0.3-2.4,0.4l0.3,1.6c0.2,0.1,0.3,0.3,0.5,0.4l0.4-0.1c0,0.1,0,0.1,0,0.2
						c-1.1,0.2-2.2,0.4-3.3,0.6l0-0.2l0.7-0.1c0.1-0.2,0.2-0.4,0.3-0.6l-0.6-3.3c-0.2-0.1-0.3-0.3-0.5-0.4L19.7,62l0-0.2
						c1.1-0.2,2.3-0.4,3.4-0.6l0,0.2l-0.5,0.1c-0.1,0.2-0.2,0.4-0.3,0.5c0.1,0.5,0.2,1,0.3,1.5C23.4,63.3,24.2,63.2,25,63"/>
					<path id="Path_130709" class="st2" d="M28.7,65.2c0-0.1,0-0.1,0-0.2h0c0.3-0.1,0.5-0.2,0.7-0.4c0.2-0.3,0.4-0.6,0.6-0.9
						c0.5-1.2,1.1-2.4,1.7-3.6l0.3,0c1,1.3,1.9,2.7,2.8,4.1c0.2,0.1,0.4,0.2,0.5,0.2c0.1,0.1,0.2,0.1,0.3,0.1h0.2c0,0.1,0,0.1,0,0.2
						c-1.2,0.1-2.4,0.1-3.6,0.2c0-0.1,0-0.1,0-0.2l0.9-0.1c0.1-0.1,0.1-0.3,0.2-0.4c-0.2-0.4-0.5-0.7-0.7-1.1
						c-0.7,0.1-1.4,0.1-2.1,0.2c-0.1,0.3-0.3,0.6-0.4,0.9c0.2,0.2,0.3,0.5,0.4,0.7l0.5-0.1c0,0.1,0,0.1,0,0.2
						C30.2,65,29.4,65.1,28.7,65.2 M30.5,63c0.6-0.1,1.2-0.1,1.9-0.2c-0.3-0.5-0.7-1-1-1.5h-0.1C31,61.8,30.7,62.4,30.5,63"/>
					<path id="Path_130710" class="st2" d="M36.2,64.5c0-0.1,0-0.1,0-0.2l0.5,0c0.2-0.3,0.4-0.5,0.6-0.8c0-1.1-0.1-2.2-0.1-3.3
						l-0.3-0.3c-0.3,0-0.6,0-0.9,0v-0.2c0.9,0,1.9-0.1,2.9-0.1c0.6,1,1.2,2.1,1.7,3.1c0.5-1,1-2.1,1.5-3.1c0.9,0,1.8,0,2.8,0.1
						c0,0.1,0,0.1,0,0.2c-0.3,0-0.5,0-0.8,0c-0.2,0.2-0.3,0.3-0.4,0.5c0,1.1-0.1,2.3-0.1,3.4c0.1,0.2,0.3,0.3,0.4,0.5
						c0.3,0,0.5,0,0.8,0c0,0.1,0,0.1,0,0.2c-1.2,0-2.3-0.1-3.5-0.1v-0.2h0.6c0.1-0.2,0.3-0.3,0.4-0.5l0-3.6h-0.2
						c-0.7,1.4-1.4,2.7-2,4.1H40c-0.7-1.4-1.5-2.7-2.3-4.1h-0.2l0.1,3.3c0.2,0.2,0.4,0.5,0.7,0.7h0.5v0.2
						C37.9,64.5,37.1,64.5,36.2,64.5"/>
					<path id="Path_130711" class="st2" d="M45.6,64.5v-0.2c0.3,0,0.5,0,0.8,0l0.4-0.4c0.1-1.1,0.1-2.3,0.2-3.4L46.7,60
						c-0.3,0-0.6,0-0.8,0c0-0.1,0-0.1,0-0.2c1.4,0.1,2.9,0.2,4.3,0.3c0.7,0,1.3,0.2,2,0.5c0.4,0.2,0.6,0.5,0.6,0.9
						c0,0.3-0.2,0.5-0.5,0.6c-0.4,0.2-0.8,0.3-1.3,0.3c0,0,0,0.1,0,0.1c0.5,0.1,1,0.3,1.4,0.6c0.3,0.2,0.4,0.6,0.4,0.9
						c0,0.4-0.3,0.7-0.8,0.8c-0.7,0.1-1.5,0.2-2.2,0.1C48.3,64.7,47,64.6,45.6,64.5 M48.4,62.1c0.4,0,0.8,0.1,1.1,0.1
						c0.4,0.1,0.8,0,1.2-0.1c0.3-0.2,0.4-0.4,0.4-0.7c0-0.3-0.1-0.6-0.3-0.8c-0.3-0.2-0.7-0.3-1-0.3c-0.3,0-0.6-0.1-0.9-0.1
						l-0.4,0.4C48.5,61.1,48.5,61.6,48.4,62.1 M49.5,64.5c0.4,0.1,0.8,0,1.2-0.2c0.5-0.3,0.6-1,0.2-1.5c0-0.1-0.1-0.1-0.1-0.1
						c-0.3-0.2-0.7-0.4-1.2-0.4c-0.4,0-0.8-0.1-1.3-0.1c0,0.6-0.1,1.2-0.1,1.7l0.3,0.4C48.9,64.5,49.2,64.5,49.5,64.5"/>
					<path id="Path_130712" class="st2" d="M53.7,65.2l0-0.2c0.3,0,0.6,0.1,0.9,0.1l0.5-0.4c0.2-1.1,0.3-2.3,0.5-3.4
						c-0.1-0.2-0.2-0.3-0.4-0.5c-0.3,0-0.6-0.1-0.9-0.1l0-0.2c2.2,0.3,4.4,0.6,6.6,1l-0.3,1.7l-0.1,0c-0.2-0.6-0.5-1.1-0.8-1.7
						c-0.7-0.1-1.5-0.2-2.2-0.4c-0.2,0.1-0.3,0.3-0.5,0.4l-0.2,1.6c0.3,0.1,0.7,0.1,1,0.2c0.3-0.3,0.6-0.6,0.9-1l0.2,0
						c-0.1,0.8-0.3,1.6-0.4,2.4l-0.2,0c-0.2-0.4-0.4-0.8-0.6-1.2c-0.3-0.1-0.7-0.1-1-0.2l-0.2,1.6l0.3,0.5c0.6,0.1,1.3,0.2,1.9,0.3
						c0.6-0.5,1.1-1.1,1.7-1.6l0.2,0c-0.2,0.7-0.3,1.4-0.5,2.1C57.9,65.8,55.8,65.5,53.7,65.2"/>
					<path id="Path_130713" class="st2" d="M61.4,66.4l0-0.2c0.3,0.1,0.5,0.1,0.8,0.2l0.5-0.4c0.2-1.1,0.5-2.3,0.7-3.4
						c-0.1-0.2-0.2-0.4-0.3-0.5L62.3,62c0-0.1,0-0.1,0-0.2c1.4,0.3,2.9,0.6,4.3,0.9c0.6,0.1,1.2,0.4,1.8,0.7c0.3,0.2,0.5,0.6,0.4,1
						c-0.1,0.3-0.4,0.6-0.7,0.6c-0.6,0.1-1.1,0.1-1.7-0.1l-0.2,0.1c0,0.1,0,0.1,0,0.2c0.2,0.1,0.4,0.2,0.5,0.3s0.4,0.2,0.6,0.3
						c0.1,0.4,0.2,0.9,0.3,1.3c0,0.2,0.1,0.3,0.2,0.4c0.2,0.1,0.4,0.2,0.6,0.3l-0.1,0.2c-0.7-0.2-1.5-0.4-2.2-0.6
						c0-0.7-0.1-1.4-0.4-2.1c-0.2-0.4-0.5-0.6-0.9-0.7l-0.4-0.1c-0.1,0.6-0.3,1.1-0.4,1.7c0.1,0.2,0.2,0.4,0.3,0.5
						c0.2,0,0.4,0.1,0.6,0.1l-0.1,0.2C63.8,66.9,62.6,66.7,61.4,66.4 M64.5,64.4l0.5,0.1c0.5,0.2,1,0.2,1.6,0.1
						c0.5-0.1,0.8-0.6,0.7-1c0-0.1-0.1-0.3-0.2-0.4c-0.3-0.3-0.6-0.4-1-0.5l-0.8-0.2c-0.2,0.1-0.3,0.2-0.5,0.3
						C64.7,63.5,64.6,64,64.5,64.4"/>
					<path class="st2" d="M60.9,25.1c-0.7,0.1-1.1-0.7-1.5-1.3l0,0c-2.7-3.7-8.7-10.6-19.6-9.6C29.2,14.9,20.9,23.5,20.7,34h4.2
						c0-0.1,0-0.2,0-0.3c0-0.3,0-0.5,0.1-0.8c0.6-6.7,6.3-14.6,15.3-14.8c4.5-0.1,11.2,0.8,15.6,7.6c0.5,0.8,1,1.6,0.7,2.4
						c-0.2,0.5-0.4,1.2,0.5,0.5c1.8-1.3,2.4-1.6,4.2-2.8C62.1,25.4,62,25,60.9,25.1L60.9,25.1z"/>
					<path class="st2" d="M25,31.8c-0.2-0.5-1.1-1.1-4-1.1c-0.1,0.6-0.2,1.4-0.3,2.3c0,0.3-0.1,0.8-0.1,1.3c0,0.2,0,0.3,0,0.5
						c0.4,0.4,0.7,1,0.9,1.6c0.5-0.2,1.1-0.3,1.6-0.3c0.1,0,0.4,0.1,0.8,0.1c0.4,0,0.7-0.2,0.9-0.3c0-0.4,0-0.9,0.1-1.6
						C25.1,32.5,25.2,32.2,25,31.8L25,31.8z"/>
					<path class="st2" d="M61.8,42.7c-2-0.9-2.5-1.1-4.4-2l-0.1,0c-0.2-0.1-0.6-0.2-0.7-0.1c-0.1,0.2,0.1,0.6,0.2,0.8
						c0.8,1.5-2.2,4.8-2.6,5.2c-0.8,0.8-1.9,1.9-3.6,2.9c-0.1,0.1-0.2,0.1-0.3,0.2c-0.1,0-0.2,0.1-0.3,0c-0.2-0.1-0.2-0.6-0.2-0.8
						c0-9.4,0-16.6-0.1-22.3v-0.3c0-1,0-1.8,0.7-2.2c0.5-0.3,1-0.9-0.1-0.8c-2.2,0-3.1,0-5.3,0H45c-1.1,0-0.3,0.6,0.1,0.8
						c0.7,0.4,0.7,1.2,0.7,2.2v0.1c0,3,0,4.5,0,7.5c0,0.4-0.3,0.7-0.7,0.8c-2.5,0.9-4.4,1.5-6.9,2.3c-0.8,0.2-1.4,0.4-1.4-0.4
						c0-3.9,0.1-6,0-9.9v-0.4c0-1,0-1.8,0.7-2.2c0.5-0.3,1-0.9-0.1-0.8c-2.2,0-2.9,0-5,0h-0.1c-1.1,0-0.6,0.6-0.1,0.8
						c0.7,0.4,0.7,1.2,0.7,2.2v2.7v0.3c0,3.2,0,6.4,0,9.6c0,2.1,0,4.2,0,6.2c0,1.2-0.1,2.4-0.1,3.6c0,0.1,0,0.6-0.2,0.6
						c0,0-0.1,0-0.3-0.1c-0.2-0.1-0.3-0.2-0.4-0.2c0,0-0.1-0.1-0.1-0.1c0,0-0.1,0-0.1-0.1c0,0,0,0-0.1,0c-0.2,0.1-0.5,1.3-0.6,1.6
						c-0.1,0.5-0.3,1.3-0.6,2.2c0.3,0.2,4.2,2.6,5.3,2.6c0.2,0,0.5,0,0.7-0.2c0.1-0.2,0.2-0.4,0.2-0.6c0-3.1,0.1-8.5,0-11.6
						c0-1,0.2-1.3,1.4-1.7l6.9-2.2c0.5-0.2,0.7-0.1,0.7,0.5c0,3.7,0,9,0,12.7c0,0,0,1.8,0,2.3c0,0.5-0.1,0.9,0.7,0.8
						C54.8,54.1,58.9,47,60,45.2c0.6-1,0.7-1.7,1.6-1.7C62.1,43.5,62.8,43.1,61.8,42.7L61.8,42.7z"/>
				</g>
				<path class="st2" d="M35.2,50.7c-0.7-0.3-1.7-0.7-2.8-1.3c-2.9-1.8-4.4-4.2-5.1-5.4c-2.2-3.7-2.4-7.4-2.4-9.2l-4.2-0.3
					c-0.1,2.1,0.1,7.4,3.6,12.5c2.3,3.4,5.2,5.3,6.5,6.1c1.8,1.1,3.4,1.7,4.6,2.1c-0.2-0.3-0.9-1.3-0.8-2.7
					C34.6,51.7,35,51.1,35.2,50.7z"/>
			</g>
		</g>
	</g>
</g>
</svg>
