<?xml version="1.0" encoding="UTF-8"?>
<svg id="Layer_2" data-name="Layer 2" xmlns="http://www.w3.org/2000/svg" xmlns:xlink="http://www.w3.org/1999/xlink" viewBox="0 0 82.14 81.86">
  <defs>
    <style>
      .cls-1 {
        clip-path: url(#clippath);
      }

      .cls-2 {
        fill: none;
      }

      .cls-2, .cls-3, .cls-4 {
        stroke-width: 0px;
      }

      .cls-3 {
        fill: #3c3c39;
      }

      .cls-4 {
        fill: #fff;
      }
    </style>
    <clipPath id="clippath">
      <rect class="cls-2" y=".14" width="82" height="81.72"/>
    </clipPath>
  </defs>
  <path id="Path_130962" data-name="Path 130962" class="cls-3" d="m.14,0h82v81.72H.14V0Z"/>
  <g id="Layer_3" data-name="Layer 3">
    <g class="cls-1">
      <g id="Group_244" data-name="Group 244">
        <path id="Path_130707" data-name="Path 130707" class="cls-4" d="m19.53,64.63c.05.59-.15,1.17-.54,1.61-.44.49-1.03.82-1.68.95-.79.22-1.63.18-2.39-.12-1.14-.44-1.71-1.73-1.27-2.87.08-.21.2-.41.34-.59.5-.65,1.21-1.1,2.01-1.27.32-.08.66-.12.99-.11.32,0,.63.07.93.17.21-.22.42-.44.63-.65l.18-.04.43,2.02-.18.04c-.32-.34-.64-.68-.96-1.02-.27-.15-.56-.25-.87-.3-.29-.05-.58-.04-.86.03-.52.09-.95.43-1.18.9-.21.57-.22,1.2-.02,1.78.11.58.42,1.11.87,1.49.42.3.96.38,1.46.23.53-.11,1.01-.39,1.37-.8.33-.39.51-.9.5-1.41l.22-.05"/>
        <path id="Path_130708" data-name="Path 130708" class="cls-4" d="m25.35,62.84l-.22-1.47-.49-.41-.44.07-.03-.21c1.13-.18,2.26-.34,3.39-.49,0,.07.02.14.03.21l-.69.09c-.12.18-.23.35-.35.53l.46,3.34c.16.14.31.29.46.43l.66-.09.02.2c-1.08.14-2.16.29-3.24.47l-.03-.2.43-.07c.11-.18.21-.36.32-.55l-.24-1.58c-.8.12-1.6.26-2.4.4l.28,1.58c.16.14.32.28.47.42l.43-.07c.01.07.02.13.03.19-1.07.18-2.15.38-3.22.59l-.04-.19.65-.13c.1-.19.2-.37.3-.56l-.63-3.31c-.16-.13-.33-.26-.49-.39l-.68.13-.04-.2c1.12-.23,2.24-.43,3.37-.62l.04.21-.45.08c-.11.18-.22.36-.32.54.09.49.17.97.26,1.46.8-.14,1.6-.27,2.41-.4"/>
        <path id="Path_130709" data-name="Path 130709" class="cls-4" d="m28.94,64.95c0-.07-.02-.13-.02-.2h.02c.26-.05.49-.19.65-.39.24-.27.44-.59.58-.93.53-1.21,1.07-2.41,1.64-3.61l.32-.03c.96,1.34,1.88,2.69,2.78,4.05.2.09.36.16.47.21s.21.08.3.11h.22c0,.05,0,.12,0,.19-1.18.06-2.35.14-3.52.24,0-.07-.01-.13-.02-.2l.85-.07c.06-.14.12-.29.17-.43-.23-.36-.47-.71-.71-1.07-.69.06-1.38.12-2.07.19-.12.28-.25.57-.37.85.15.23.29.45.44.68l.54-.05c0,.07.01.13.02.2-.77.07-1.54.16-2.3.25m1.76-2.16c.61-.06,1.22-.12,1.84-.17-.32-.51-.65-1.02-.99-1.52h-.1c-.25.57-.5,1.13-.75,1.69"/>
        <path id="Path_130710" data-name="Path 130710" class="cls-4" d="m36.37,64.33c0-.07,0-.13,0-.2l.52-.02c.2-.26.4-.51.6-.77-.04-1.11-.08-2.22-.12-3.33l-.33-.25c-.29.01-.58.02-.88.04v-.21c.93-.04,1.87-.08,2.81-.09.58,1.02,1.15,2.05,1.7,3.08.49-1.04.99-2.07,1.51-3.1.9,0,1.8.03,2.71.06,0,.07,0,.14,0,.21-.26,0-.52-.02-.78-.02-.15.16-.29.31-.43.47-.03,1.13-.05,2.27-.08,3.4.13.15.26.31.39.46.25,0,.5.01.74.02,0,.07,0,.13,0,.2-1.14-.04-2.28-.06-3.43-.06v-.2h.63c.14-.15.28-.3.42-.45l.04-3.6h-.2c-.68,1.36-1.34,2.72-1.97,4.09h-.16c-.73-1.36-1.49-2.7-2.28-4.04h-.16l.11,3.31c.22.24.44.48.66.73h.48v.19c-.83.02-1.67.05-2.5.09"/>
        <path id="Path_130711" data-name="Path 130711" class="cls-4" d="m45.62,64.32v-.2c.28.01.54.02.8.04l.43-.43c.07-1.14.13-2.28.19-3.42l-.4-.48c-.28-.01-.55-.03-.83-.04,0-.07,0-.14,0-.21,1.42.06,2.84.15,4.26.27.66.03,1.32.18,1.93.45.42.22.61.5.57.85-.04.27-.21.49-.46.6-.4.18-.83.29-1.27.32,0,.03,0,.06,0,.1.49.1.94.32,1.33.64.28.21.43.55.4.9-.04.41-.34.74-.74.82-.72.14-1.47.16-2.2.06-1.33-.11-2.67-.2-4.01-.26m2.76-2.42c.37.03.74.05,1.11.08.4.06.81.02,1.18-.12.26-.15.41-.42.42-.72.04-.28-.06-.57-.28-.75-.29-.21-.64-.33-1-.33-.3-.02-.59-.05-.89-.07l-.44.41c-.03.5-.07,1-.1,1.5m1.02,2.42c.41.07.83.02,1.22-.15.48-.34.58-1.01.24-1.48-.03-.05-.07-.09-.11-.13-.34-.24-.73-.37-1.14-.37-.42-.03-.83-.07-1.25-.1-.04.57-.08,1.15-.12,1.72l.34.44c.27.02.54.04.82.06"/>
        <path id="Path_130712" data-name="Path 130712" class="cls-4" d="m53.54,64.98l.02-.2c.29.04.58.07.87.11l.45-.4c.15-1.13.31-2.27.46-3.4-.11-.17-.23-.33-.35-.5-.3-.04-.6-.08-.9-.11l.03-.21c2.17.27,4.32.6,6.48,1l-.32,1.7-.14-.03c-.24-.56-.49-1.11-.74-1.66-.72-.12-1.43-.24-2.15-.35-.16.12-.32.25-.47.38l-.24,1.63c.32.05.64.1.96.15.31-.32.62-.64.93-.96l.15.03c-.13.8-.27,1.6-.4,2.39l-.15-.02c-.19-.41-.38-.82-.57-1.23-.32-.05-.64-.1-.96-.15l-.23,1.55.3.47c.63.1,1.27.2,1.9.31.56-.53,1.13-1.06,1.71-1.58l.15.03c-.17.68-.34,1.36-.51,2.04-2.09-.39-4.18-.71-6.28-.97"/>
        <path id="Path_130713" data-name="Path 130713" class="cls-4" d="m61.17,66.21l.04-.19c.25.05.5.1.74.15l.48-.36c.24-1.12.47-2.24.71-3.35-.1-.18-.21-.35-.31-.53l-.78-.16c.01-.07.03-.14.04-.2,1.42.28,2.83.6,4.24.94.63.12,1.22.37,1.74.74.33.21.49.6.39.98-.09.33-.38.57-.71.61-.56.08-1.13.05-1.68-.07l-.2.13c0,.07.01.13.02.2.17.1.36.2.54.3s.39.19.6.27c.09.44.17.88.26,1.32.03.15.11.28.23.38.17.13.36.23.56.3l-.05.19c-.73-.2-1.47-.39-2.2-.58,0-.71-.13-1.41-.37-2.07-.17-.35-.5-.6-.88-.67l-.41-.09c-.13.56-.25,1.12-.38,1.68.1.18.2.36.3.53.19.04.38.09.57.13l-.05.19c-1.15-.27-2.3-.52-3.45-.75m3.05-1.98l.52.12c.5.15,1.03.19,1.55.13.46-.1.76-.55.66-1.01-.03-.14-.1-.28-.19-.39-.26-.25-.6-.43-.96-.49l-.74-.17c-.17.11-.34.22-.51.34-.11.49-.22.98-.33,1.47"/>
        <path class="cls-4" d="m60.65,25.15c-.67.07-1.04-.74-1.46-1.32h0c-2.65-3.66-8.54-10.57-19.3-9.57-10.43.69-18.6,9.26-18.77,19.71h4.13c0-.1.01-.19.02-.29,0-.26.02-.52.09-.77.55-6.63,6.16-14.52,15.02-14.71,4.45-.1,10.98.78,15.39,7.58.54.83,1.02,1.62.65,2.36-.24.48-.39,1.18.51.53,1.82-1.25,2.35-1.57,4.14-2.8.77-.47.63-.83-.41-.72Z"/>
        <path class="cls-4" d="m25.36,31.77c-.23-.53-1.04-1.12-3.91-1.05-.1.57-.22,1.35-.31,2.28-.03.3-.07.76-.1,1.34,0,.16-.01.33-.02.51.44.42.73.98.85,1.58.47-.17,1.06-.33,1.59-.34.1,0,.41.1.81.06.39-.04.7-.17.9-.28,0-.36.03-.94.08-1.64.13-1.71.29-2.06.12-2.46Z"/>
        <path class="cls-4" d="m61.54,42.6c-1.94-.86-2.47-1.13-4.37-1.97l-.07-.03c-.23-.09-.55-.2-.66-.07-.14.16.14.61.23.79.77,1.54-2.19,4.8-2.57,5.22-.75.81-1.91,1.9-3.58,2.89-.06.05-.17.12-.32.17-.12.04-.24.06-.33,0-.24-.13-.18-.63-.18-.77,0-9.3-.02-16.51-.05-22.15v-.26c0-1,.04-1.8.73-2.21.45-.26.97-.86-.1-.83-2.12,0-3.09-.02-5.17,0h-.08c-1.07-.03-.31.57.14.83.69.4.73,1.21.73,2.21v.11c-.03,2.95,0,4.46,0,7.41-.02.39-.3.73-.68.82-2.46.92-4.32,1.52-6.83,2.3-.83.19-1.35.39-1.35-.42,0-3.89.05-5.94,0-9.83v-.38c0-1,.04-1.8.73-2.21.45-.26.97-.86-.1-.83-2.12,0-2.88-.02-4.96,0h-.08c-1.07-.03-.55.57-.1.83.69.4.73,1.21.73,2.21v2.73s0,.31,0,.31c-.01,3.16-.02,6.33-.03,9.51,0,2.07,0,4.14-.01,6.21-.03,1.21-.05,2.41-.08,3.62,0,.08,0,.55-.17.6-.04.01-.08,0-.25-.09-.16-.08-.29-.15-.38-.2-.04-.03-.08-.05-.1-.06-.04-.02-.06-.04-.11-.07-.02-.01-.04-.02-.05-.03-.22.08-.49,1.26-.57,1.61-.12.53-.31,1.28-.63,2.18.34.21,4.09,2.54,5.18,2.57.15,0,.52.01.73-.23.14-.16.15-.38.15-.62,0-3.07.05-8.48.03-11.55,0-.96.24-1.27,1.41-1.72l6.82-2.14c.52-.17.68-.08.68.47,0,3.65-.04,8.98,0,12.63,0,0-.04,1.79-.04,2.31,0,.45-.11.86.65.84,8.13-1.34,12.17-8.46,13.24-10.18.61-.98.73-1.67,1.57-1.71.52-.03,1.24-.38.25-.79Z"/>
      </g>
      <path class="cls-4" d="m35.4,50.6c-.72-.25-1.71-.65-2.79-1.32-2.9-1.8-4.35-4.21-5.04-5.39-2.16-3.69-2.39-7.31-2.38-9.14l-4.17-.28c-.05,2.08.12,7.37,3.57,12.46,2.29,3.39,5.11,5.32,6.39,6.11,1.74,1.08,3.36,1.73,4.54,2.12-.21-.3-.85-1.28-.76-2.64.06-.92.43-1.59.64-1.92Z"/>
    </g>
  </g>
</svg>